 http://www.imdb.com/title/tt0462504/

Source: Rescue.Dawn.2006.720p.BluRay.DTS.x264-CtrlHD Thanks!

Subs: Arabic, Brazilian, Bulgarian, Danish, Dutch, English, Farsi-Persian, Indonesian, Servian, Slovenian, Swedish, Turkish and Vietnamese.

Sample and Screens included.

General
Complete name                            : Rescue Dawn-720p MP4 AAC x264 BRRip 2006-CC.mp4
Format                                   : MPEG-4
Format profile                           : Base Media
Codec ID                                 : isom
File size                                : 3.15 GiB
Duration                                 : 2h 5mn
Overall bit rate mode                    : Variable
Overall bit rate                         : 3 594 Kbps
Encoded date                             : UTC 2012-12-27 14:55:16

Video
ID                                       : 1
Format                                   : AVC
Format/Info                              : Advanced Video Codec
Format profile                           : High@L4.1
Format settings, CABAC                   : Yes
Format settings, ReFrames                : 5 frames
Codec ID                                 : avc1
Codec ID/Info                            : Advanced Video Coding
Duration                                 : 2h 5mn
Source duration                          : 2h 5mn
Bit rate                                 : 3 224 Kbps
Maximum bit rate                         : 10.1 Mbps
Width                                    : 1 280 pixels
Height                                   : 700 pixels
Display aspect ratio                     : 1.85:1
Frame rate mode                          : Variable
Frame rate                               : 23.976 fps
Minimum frame rate                       : 19.048 fps
Maximum frame rate                       : 24.390 fps
Color space                              : YUV
Chroma subsampling                       : 4:2:0
Bit depth                                : 8 bits
Scan type                                : Progressive
Bits/(Pixel*Frame)                       : 0.150
Stream size                              : 2.81 GiB (89%)
Source stream size                       : 2.81 GiB (89%)
Writing library                          : x264 core 112

Audio
ID                                       : 2
Format                                   : AAC
Format/Info                              : Advanced Audio Codec
Format profile                           : LC
Codec ID                                 : 40
Duration                                 : 2h 5mn
Bit rate mode                            : Variable
Bit rate                                 : 384 Kbps
Maximum bit rate                         : 668 Kbps
Channel(s)                               : 6 channels
Channel positions                        : Front: L C R, Side: L R, LFE
Sampling rate                            : 48.0 KHz
Compression mode                         : Lossy
Delay relative to video                  : 105ms
Stream size                              : 344 MiB (11%)
Language                                 : English

Enjoy...

Requested by RobinJo.

Coming soon: Apocalypse Hitler, S.Darko, Domino, Mercury Rising, Twilight Samurai and more..